<svg xmlns="http://www.w3.org/2000/svg" xmlns:xlink="http://www.w3.org/1999/xlink" width="158" zoomAndPan="magnify" viewBox="0 0 118.5 116.999995" height="156" preserveAspectRatio="xMidYMid meet" version="1.0"><defs><clipPath id="078139e036"><path d="M 36 29 L 118.003906 29 L 118.003906 88 L 36 88 Z M 36 29 " clip-rule="nonzero"/></clipPath><clipPath id="37b1b2fe06"><path d="M 29 29 L 89 29 L 89 88 L 29 88 Z M 29 29 " clip-rule="nonzero"/></clipPath></defs><path fill="#ffffff" d="M 51.625 43.75 L 29.5 43.75 C 21.355469 43.75 14.75 50.355469 14.75 58.5 C 14.75 66.644531 21.355469 73.25 29.5 73.25 L 29.5 88 C 13.207031 88 0 74.792969 0 58.5 C 0 42.207031 13.207031 29 29.5 29 L 51.625 29 C 67.917969 29 81.125 42.207031 81.125 58.5 L 81.125 65.875 L 66.375 65.875 L 66.375 58.5 C 66.375 50.355469 59.773438 43.75 51.625 43.75 Z M 51.625 43.75 " fill-opacity="1" fill-rule="evenodd"/><g clip-path="url(#078139e036)"><path fill="#ffffff" d="M 66.375 73.25 L 88.5 73.25 C 96.648438 73.25 103.25 66.644531 103.25 58.5 C 103.25 50.355469 96.648438 43.75 88.5 43.75 L 88.5 29 C 104.792969 29 118.003906 42.207031 118.003906 58.5 C 118.003906 74.792969 104.792969 88 88.5 88 L 66.375 88 C 50.082031 88 36.875 74.792969 36.875 58.5 L 36.875 51.125 L 51.625 51.125 L 51.625 58.5 C 51.625 66.644531 58.230469 73.25 66.375 73.25 Z M 66.375 73.25 " fill-opacity="1" fill-rule="evenodd"/></g><g clip-path="url(#37b1b2fe06)"><path fill="#000000" d="M 67.253906 58.800781 L 86.496094 39.554688 C 88.78125 37.273438 88.78125 33.574219 86.496094 31.292969 C 84.214844 29.011719 80.519531 29.011719 78.238281 31.292969 L 58.992188 50.539062 L 39.75 31.296875 C 37.46875 29.011719 33.769531 29.011719 31.484375 31.296875 C 29.207031 33.574219 29.207031 37.273438 31.484375 39.558594 L 50.730469 58.800781 L 31.441406 78.089844 C 29.160156 80.371094 29.160156 84.070312 31.441406 86.351562 C 32.578125 87.492188 34.074219 88.0625 35.570312 88.0625 C 37.0625 88.0625 38.5625 87.492188 39.703125 86.351562 L 58.992188 67.0625 L 78.234375 86.304688 C 79.375 87.445312 80.871094 88.015625 82.363281 88.015625 C 83.855469 88.015625 85.351562 87.445312 86.492188 86.304688 C 88.777344 84.023438 88.777344 80.324219 86.492188 78.042969 Z M 67.253906 58.800781 " fill-opacity="1" fill-rule="nonzero"/></g></svg>