<svg xmlns="http://www.w3.org/2000/svg" xmlns:xlink="http://www.w3.org/1999/xlink" width="500" zoomAndPan="magnify" viewBox="0 0 375 374.999991" height="500" preserveAspectRatio="xMidYMid meet" version="1.2"><defs><clipPath id="2f7f912377"><path d="M 187.5 0 C 83.945312 0 0 83.945312 0 187.5 C 0 291.054688 83.945312 375 187.5 375 C 291.054688 375 375 291.054688 375 187.5 C 375 83.945312 291.054688 0 187.5 0 Z M 187.5 0 "/></clipPath><clipPath id="ba0cdbdb62"><path d="M 141 76.242188 L 223 76.242188 L 223 194 L 141 194 Z M 141 76.242188 "/></clipPath><clipPath id="7bb8c932d2"><path d="M 47 76.242188 L 202 76.242188 L 202 124 L 47 124 Z M 47 76.242188 "/></clipPath><clipPath id="ce8ce5ec40"><path d="M 235 76.242188 L 328 76.242188 L 328 124 L 235 124 Z M 235 76.242188 "/></clipPath><clipPath id="b42ddcc1c9"><path d="M 31.625 128 L 343.371094 128 L 343.371094 298.746094 L 31.625 298.746094 Z M 31.625 128 "/></clipPath></defs><g id="6c664a490f"><g clip-rule="nonzero" clip-path="url(#2f7f912377)"><rect x="0" width="375" y="0" height="374.999991" style="fill:#ffffff;fill-opacity:1;stroke:none;"/></g><g clip-rule="nonzero" clip-path="url(#ba0cdbdb62)"><path style=" stroke:none;fill-rule:nonzero;fill:#004aad;fill-opacity:1;" d="M 196.378906 166.308594 L 222.816406 76.574219 L 175.914062 76.574219 L 141.425781 193.636719 C 157.78125 184.1875 176.285156 174.9375 196.378906 166.308594 "/></g><path style=" stroke:none;fill-rule:nonzero;fill:#545454;fill-opacity:1;" d="M 133.917969 219.121094 L 116.113281 279.558594 L 163.015625 279.558594 L 191.246094 183.742188 C 168.988281 195.234375 149.558594 207.273438 133.917969 219.121094 "/><g clip-rule="nonzero" clip-path="url(#7bb8c932d2)"><path style=" stroke:none;fill-rule:nonzero;fill:#004aad;fill-opacity:1;" d="M 201.941406 76.242188 L 94.355469 76.242188 C 68.453125 76.242188 47.453125 97.242188 47.453125 123.144531 L 188.121094 123.144531 L 201.941406 76.242188 "/></g><g clip-rule="nonzero" clip-path="url(#ce8ce5ec40)"><path style=" stroke:none;fill-rule:nonzero;fill:#545454;fill-opacity:1;" d="M 248.839844 76.242188 L 235.023438 123.144531 L 280.847656 123.144531 C 306.75 123.144531 327.75 102.144531 327.75 76.242188 L 248.839844 76.242188 "/></g><g clip-rule="nonzero" clip-path="url(#b42ddcc1c9)"><path style=" stroke:none;fill-rule:nonzero;fill:#004aad;fill-opacity:1;" d="M 57.644531 286.488281 C 45.78125 254.15625 121.058594 196.792969 225.785156 158.359375 C 268.273438 142.765625 309.082031 132.6875 343.371094 128.375 C 305.742188 127.128906 250.613281 137.628906 192.078125 159.109375 C 92.96875 195.480469 21.644531 249.546875 32.769531 279.871094 C 36.5625 290.203125 49.4375 296.445312 68.679688 298.746094 C 63.230469 295.527344 59.464844 291.445312 57.644531 286.488281 "/></g></g></svg>