<svg xmlns="http://www.w3.org/2000/svg" xmlns:xlink="http://www.w3.org/1999/xlink" width="500" zoomAndPan="magnify" viewBox="0 0 375 374.999991" height="500" preserveAspectRatio="xMidYMid meet" version="1.2"><defs><clipPath id="ee8ae29d58"><path d="M 61.640625 148 L 313.640625 148 L 313.640625 367 L 61.640625 367 Z M 61.640625 148 "/></clipPath><clipPath id="28f8c0b3a2"><path d="M 61.640625 0 L 313.640625 0 L 313.640625 278 L 61.640625 278 Z M 61.640625 0 "/></clipPath></defs><g id="05272dde7a"><g clip-rule="nonzero" clip-path="url(#ee8ae29d58)"><path style="fill:none;stroke-width:3;stroke-linecap:round;stroke-linejoin:round;stroke:#000000;stroke-opacity:1;stroke-miterlimit:4;" d="M 36.583167 38.499984 L 36.583167 40.77909 C 36.583167 41.780794 35.778851 42.59301 34.784822 42.59301 L 13.213867 42.59301 C 12.221149 42.59301 11.415959 41.780794 11.415959 40.77909 L 11.415959 21.086789 " transform="matrix(8.93617,0,0,8.926196,-26.82745,-26.728716)"/></g><g clip-rule="nonzero" clip-path="url(#28f8c0b3a2)"><path style="fill:none;stroke-width:3;stroke-linecap:round;stroke-linejoin:round;stroke:#000000;stroke-opacity:1;stroke-miterlimit:4;" d="M 11.416834 14.630196 L 11.416834 10.847877 C 11.416834 7.342132 14.234123 4.498938 17.708854 4.498938 L 30.292021 4.498938 C 33.767188 4.498938 36.584041 7.340819 36.584041 10.847877 L 36.584041 32.629797 " transform="matrix(8.93617,0,0,8.926196,-26.82745,-26.728716)"/></g><path style="fill:none;stroke-width:3;stroke-linecap:round;stroke-linejoin:round;stroke:#000000;stroke-opacity:1;stroke-miterlimit:4;" d="M 14.022991 42.59301 L 14.022991 43.500189 " transform="matrix(8.93617,0,0,8.926196,-26.82745,-26.728716)"/><path style="fill:none;stroke-width:3;stroke-linecap:round;stroke-linejoin:round;stroke:#000000;stroke-opacity:1;stroke-miterlimit:4;" d="M 33.97701 42.59301 L 33.97701 43.500189 " transform="matrix(8.93617,0,0,8.926196,-26.82745,-26.728716)"/><path style="fill:none;stroke-width:3;stroke-linecap:round;stroke-linejoin:round;stroke:#000000;stroke-opacity:1;stroke-miterlimit:4;" d="M 16.500195 5.500205 L 16.500195 15.775001 C 16.500195 17.294842 19.858212 18.52717 24 18.52717 C 28.141788 18.52717 31.499805 17.294842 31.499805 15.775001 L 31.499805 5.500205 " transform="matrix(8.93617,0,0,8.926196,-26.82745,-26.728716)"/><path style="fill:none;stroke-width:3;stroke-linecap:round;stroke-linejoin:round;stroke:#000000;stroke-opacity:1;stroke-miterlimit:4;" d="M 28.787863 31.980812 C 28.787863 34.62489 26.644187 36.769211 24 36.769211 C 21.355813 36.769211 19.212137 34.62489 19.212137 31.980812 C 19.212137 28.787963 24 24.000001 24 24.000001 C 24 24.000001 28.787863 28.787963 28.787863 31.980812 Z M 28.787863 31.980812 " transform="matrix(8.93617,0,0,8.926196,-26.82745,-26.728716)"/><path style="fill:none;stroke-width:3;stroke-linecap:round;stroke-linejoin:round;stroke:#000000;stroke-opacity:1;stroke-miterlimit:4;" d="M 30.703795 37.727153 L 17.296205 24.319024 " transform="matrix(8.93617,0,0,8.926196,-26.82745,-26.728716)"/></g></svg>