<svg xmlns="http://www.w3.org/2000/svg" xmlns:xlink="http://www.w3.org/1999/xlink" width="500" zoomAndPan="magnify" viewBox="0 0 375 374.999991" height="500" preserveAspectRatio="xMidYMid meet" version="1.2"><defs><clipPath id="22d65a1a0f"><path d="M 1 0 L 375 0 L 375 373.5 L 1 373.5 Z M 1 0 "/></clipPath></defs><g id="7a315cd207"><g clip-rule="nonzero" clip-path="url(#22d65a1a0f)"><path style=" stroke:none;fill-rule:nonzero;fill:#ffffff;fill-opacity:1;" d="M 187.789062 373.410156 C 85.71875 373.363281 2.59375 291.273438 1.332031 189.113281 C 0.0703125 84.746094 84.097656 0 188.195312 0.0898438 C 291.707031 0.179688 374.785156 83.890625 374.652344 187.71875 C 374.5625 290.105469 290.625 373.5 187.789062 373.410156 Z M 188.015625 40.820312 C 108.128906 40.773438 42.285156 106.121094 42.152344 185.601562 C 42.015625 267.015625 106.824219 332.363281 187.835938 332.636719 C 267.898438 332.90625 333.742188 267.378906 333.832031 187.402344 C 333.921875 106.394531 268.800781 40.910156 188.015625 40.820312 Z M 294.363281 186.683594 C 294.363281 246.226562 246.925781 293.164062 186.800781 293.164062 C 128.878906 293.164062 81.398438 245.054688 81.441406 186.503906 C 81.488281 127.410156 129.328125 80.199219 189.09375 80.246094 C 246.972656 80.335938 294.40625 128.308594 294.363281 186.683594 Z M 252.867188 187.582031 C 252.867188 152.253906 223.75 122.773438 188.871094 122.773438 C 152.101562 122.773438 123.25 151.488281 123.25 187.988281 C 123.25 223.675781 152.460938 252.34375 188.824219 252.34375 C 223.703125 252.300781 252.867188 222.867188 252.867188 187.582031 Z M 187.925781 158.597656 C 172.441406 158.597656 159.796875 171.246094 159.796875 186.773438 C 159.796875 202.433594 172.441406 214.992188 188.195312 214.902344 C 203.8125 214.8125 216.054688 202.390625 216.054688 186.636719 C 216.054688 170.976562 203.632812 158.597656 187.925781 158.597656 Z M 187.925781 158.597656 "/></g></g></svg>