<svg xmlns="http://www.w3.org/2000/svg" xmlns:xlink="http://www.w3.org/1999/xlink" width="500" zoomAndPan="magnify" viewBox="0 0 375 374.999991" height="500" preserveAspectRatio="xMidYMid meet" version="1.2"><defs><clipPath id="eb79926816"><path d="M 6 5 L 370.96875 5 L 370.96875 370 L 6 370 Z M 6 5 "/></clipPath></defs><g id="3d6130d1e8"><g clip-rule="nonzero" clip-path="url(#eb79926816)"><path style=" stroke:none;fill-rule:nonzero;fill:#000000;fill-opacity:1;" d="M 18.648438 368.253906 C 18.648438 368.253906 365.574219 194.878906 365.574219 194.878906 C 371.515625 192.125 371.613281 182.859375 365.574219 180.109375 L 18.648438 6.738281 C 12.40625 3.394531 4.617188 10.007812 7.117188 16.734375 C 7.117188 16.734375 64.0625 187.5 64.0625 187.5 L 7.117188 358.265625 C 4.65625 364.910156 12.371094 371.6875 18.648438 368.253906 Z M 29.097656 30.421875 L 326.894531 179.242188 L 78.734375 179.242188 Z M 78.734375 195.757812 L 326.894531 195.757812 L 29.097656 344.578125 Z M 78.734375 195.757812 "/></g></g></svg>