<svg xmlns="http://www.w3.org/2000/svg" xmlns:xlink="http://www.w3.org/1999/xlink" width="500" zoomAndPan="magnify" viewBox="0 0 375 374.999991" height="500" preserveAspectRatio="xMidYMid meet" version="1.2"><g id="300705b940"><path style="fill:none;stroke-width:80;stroke-linecap:round;stroke-linejoin:round;stroke:#231f1f;stroke-opacity:1;stroke-miterlimit:10;" d="M 2808.902156 2778.308735 C 2894.189272 2788.402174 2971.498244 2759.396283 3033.590119 2701.690363 C 3158.4111 2585.590333 3169.498935 2358.105643 3024.592405 2251.79319 C 2981.107701 2220.009055 2933.391777 2183.891878 2878.895706 2186.593657 " transform="matrix(0.153251,0,0,-0.153256,-136.165518,515.623142)"/><path style="fill:none;stroke-width:80;stroke-linecap:round;stroke-linejoin:round;stroke:#231f1f;stroke-opacity:1;stroke-miterlimit:10;" d="M 2482.206113 2340.595057 C 2729.808935 2420.297536 2865.794219 2685.607131 2786.089255 2933.202232 C 2706.40978 3180.69538 2441.091912 3316.803866 2193.489091 3237.101387 C 1945.988227 3157.296954 1809.900985 2891.987359 1889.605949 2644.494212 " transform="matrix(0.153251,0,0,-0.153256,-136.165518,515.623142)"/><path style="fill:none;stroke-width:80;stroke-linecap:round;stroke-linejoin:round;stroke:#231f1f;stroke-opacity:1;stroke-miterlimit:10;" d="M 1847.905495 2990.908153 C 1629.309469 3131.808474 1337.890583 3068.80095 1197.011358 2850.211739 C 1056.106644 2631.698995 1118.988686 2340.21273 1337.610201 2199.312409 C 1556.206227 2058.412087 1847.599624 2121.394123 1988.606295 2339.906868 " transform="matrix(0.153251,0,0,-0.153256,-136.165518,515.623142)"/><path style="fill:none;stroke-width:80;stroke-linecap:round;stroke-linejoin:round;stroke:#231f1f;stroke-opacity:1;stroke-miterlimit:10;" d="M 1653.294877 1708.608179 C 1543.690993 1806.611387 1530.41108 2002.694269 1653.600748 2096.797739 C 1690.509219 2124.987999 1731.088146 2156.899577 1778.09037 2155.49771 " transform="matrix(0.153251,0,0,-0.153256,-136.165518,515.623142)"/><path style="fill:none;stroke-width:80;stroke-linecap:round;stroke-linejoin:round;stroke:#231f1f;stroke-opacity:1;stroke-miterlimit:10;" d="M 2208.502274 1358.80427 C 2399.2895 1381.106691 2535.912017 1553.791147 2513.710858 1744.49596 " transform="matrix(0.153251,0,0,-0.153256,-136.165518,515.623142)"/><path style="fill:none;stroke-width:80;stroke-linecap:round;stroke-linejoin:round;stroke:#231f1f;stroke-opacity:1;stroke-miterlimit:10;" d="M 2544.501902 1564.802171 C 2706.001951 1460.80917 2921.207904 1507.300159 3025.204147 1668.693218 C 3129.302348 1830.111766 3082.80991 2045.311008 2921.411818 2149.405963 C 2759.988237 2253.398965 2544.705817 2207.00993 2440.709573 2045.591382 " transform="matrix(0.153251,0,0,-0.153256,-136.165518,515.623142)"/><path style="fill:none;stroke-width:80;stroke-linecap:round;stroke-linejoin:round;stroke:#231f1f;stroke-opacity:1;stroke-miterlimit:10;" d="M 1224.998583 1135.193829 C 1258.49149 1252.695725 1380.992948 1320.902899 1498.600465 1287.411036 " transform="matrix(0.153251,0,0,-0.153256,-136.165518,515.623142)"/><path style="fill:none;stroke-width:80;stroke-linecap:round;stroke-linejoin:round;stroke:#231f1f;stroke-opacity:1;stroke-miterlimit:10;" d="M 1624.0077 1233.706807 C 1498.192636 1248.005845 1407.807666 1361.506049 1422.107149 1487.291701 C 1436.406633 1613.102842 1550.012333 1703.408529 1675.69995 1689.109491 " transform="matrix(0.153251,0,0,-0.153256,-136.165518,515.623142)"/><path style="fill:none;stroke-width:80;stroke-linecap:round;stroke-linejoin:round;stroke:#231f1f;stroke-opacity:1;stroke-miterlimit:10;" d="M 2031.096917 1627.911649 C 2150.896512 1603.391731 2228.205484 1486.501558 2203.71029 1366.705699 C 2179.291564 1246.90984 2062.29579 1169.603278 1942.598153 1194.097708 " transform="matrix(0.153251,0,0,-0.153256,-136.165518,515.623142)"/><path style="fill:none;stroke-width:80;stroke-linecap:round;stroke-linejoin:round;stroke:#231f1f;stroke-opacity:1;stroke-miterlimit:10;" d="M 1924.602725 1278.209694 C 1937.704212 1235.108673 1938.010083 1187.700099 1922.30869 1141.795346 C 1882.698356 1026.205086 1756.806825 964.548451 1641.111004 1004.106573 C 1608.612177 1015.296016 1580.39555 1033.18893 1557.404223 1055.899166 " transform="matrix(0.153251,0,0,-0.153256,-136.165518,515.623142)"/></g></svg>