<svg xmlns="http://www.w3.org/2000/svg" xmlns:xlink="http://www.w3.org/1999/xlink" width="500" zoomAndPan="magnify" viewBox="0 0 375 374.999991" height="500" preserveAspectRatio="xMidYMid meet" version="1.2"><g id="3368b6420a"><path style=" stroke:none;fill-rule:nonzero;fill:#000000;fill-opacity:1;" d="M 375 69.800781 C 375 31.3125 343.71875 0 305.265625 0 C 279.644531 0 256.09375 14.386719 244 36.804688 C 218.039062 19.054688 187.769531 9.601562 156.125 9.601562 C 70.039062 9.601562 0 79.710938 0 165.886719 C 0 199.957031 10.785156 232.15625 31.058594 259.285156 C 16.6875 271.847656 8.429688 289.726562 8.429688 308.945312 C 8.429688 345.371094 38.03125 375 74.417969 375 C 106.132812 375 133.386719 352.078125 139.199219 321.195312 C 144.824219 321.800781 150.496094 322.175781 156.125 322.175781 C 242.214844 322.175781 312.253906 252.0625 312.253906 165.886719 C 312.253906 156.933594 311.402344 148.078125 309.910156 139.359375 C 346.128906 136.9375 375 106.558594 375 69.800781 Z M 308.722656 132.734375 C 304.839844 114.75 297.800781 97.550781 287.820312 81.902344 C 286.824219 80.335938 284.75 79.878906 283.195312 80.875 C 281.640625 81.867188 281.179688 83.941406 282.175781 85.496094 C 297.472656 109.492188 305.558594 137.289062 305.558594 165.886719 C 305.558594 248.371094 238.523438 315.476562 156.125 315.476562 C 149.722656 315.476562 143.242188 315.066406 136.863281 314.25 C 135.046875 314.027344 133.351562 315.320312 133.117188 317.144531 C 133.113281 317.183594 133.128906 317.222656 133.125 317.261719 C 129.042969 346.371094 103.839844 368.304688 74.417969 368.304688 C 41.722656 368.304688 15.125 341.675781 15.125 308.945312 C 15.125 291.792969 22.453125 275.824219 35.207031 264.542969 C 47.699219 279.878906 62.664062 292.644531 79.921875 302.328125 C 80.441406 302.613281 81 302.75 81.558594 302.75 C 82.726562 302.75 83.867188 302.136719 84.480469 301.039062 C 85.386719 299.429688 84.808594 297.390625 83.199219 296.480469 C 65.6875 286.664062 50.542969 273.632812 38.183594 257.746094 C 17.585938 231.289062 6.695312 199.519531 6.695312 165.886719 C 6.695312 83.40625 73.730469 16.296875 156.125 16.296875 C 187.617188 16.296875 217.730469 25.980469 243.214844 44.3125 C 244.714844 45.382812 246.800781 45.042969 247.886719 43.546875 C 248.011719 43.371094 248.050781 43.171875 248.140625 42.984375 L 248.175781 43.003906 C 258.523438 20.945312 280.9375 6.695312 305.265625 6.695312 C 340.023438 6.695312 368.304688 35.003906 368.304688 69.800781 C 368.304688 103.285156 341.808594 130.914062 308.722656 132.734375 Z M 308.722656 132.734375 "/><path style=" stroke:none;fill-rule:nonzero;fill:#000000;fill-opacity:1;" d="M 212.863281 211.234375 L 233.332031 184.882812 C 234.117188 183.878906 234.257812 182.503906 233.695312 181.359375 C 233.132812 180.207031 231.964844 179.484375 230.6875 179.484375 L 191.5 179.484375 C 189.648438 179.484375 188.152344 180.980469 188.152344 182.832031 C 188.152344 184.679688 189.648438 186.179688 191.5 186.179688 L 223.847656 186.179688 L 203.984375 211.75 C 203.894531 211.859375 203.871094 211.996094 203.800781 212.117188 C 203.679688 212.3125 203.574219 212.503906 203.496094 212.726562 C 203.417969 212.949219 203.386719 213.171875 203.359375 213.40625 C 203.34375 213.542969 203.28125 213.660156 203.28125 213.800781 C 203.28125 213.871094 203.316406 213.929688 203.320312 214 C 203.335938 214.234375 203.394531 214.453125 203.457031 214.679688 C 203.511719 214.882812 203.558594 215.078125 203.648438 215.261719 C 203.734375 215.441406 203.859375 215.59375 203.980469 215.757812 C 204.125 215.953125 204.265625 216.136719 204.445312 216.296875 C 204.496094 216.339844 204.519531 216.402344 204.574219 216.445312 C 204.628906 216.488281 204.703125 216.46875 204.761719 216.507812 C 205.300781 216.878906 205.917969 217.144531 206.621094 217.148438 C 206.621094 217.148438 206.625 217.148438 206.625 217.148438 C 206.628906 217.148438 206.628906 217.148438 206.628906 217.148438 C 218.050781 217.148438 227.339844 226.457031 227.339844 237.886719 C 227.339844 249.316406 218.050781 258.625 206.628906 258.625 C 195.207031 258.625 185.914062 249.316406 185.914062 237.886719 C 185.914062 236.035156 184.417969 234.539062 182.566406 234.539062 C 180.714844 234.539062 179.21875 236.035156 179.21875 237.886719 C 179.21875 253.011719 191.515625 265.320312 206.628906 265.320312 C 221.742188 265.320312 234.035156 253.011719 234.035156 237.886719 C 234.035156 224.914062 224.96875 214.078125 212.863281 211.234375 Z M 212.863281 211.234375 "/><path style=" stroke:none;fill-rule:nonzero;fill:#000000;fill-opacity:1;" d="M 122.128906 66.453125 C 97.914062 66.453125 78.214844 86.152344 78.214844 110.359375 L 78.214844 171.957031 C 78.214844 196.171875 97.914062 215.867188 122.128906 215.867188 C 146.339844 215.867188 166.039062 196.171875 166.039062 171.957031 L 166.039062 110.359375 C 166.039062 86.152344 146.339844 66.453125 122.128906 66.453125 Z M 159.34375 171.957031 C 159.34375 192.476562 142.648438 209.171875 122.128906 209.171875 C 101.605469 209.171875 84.910156 192.476562 84.910156 171.957031 L 84.910156 110.359375 C 84.910156 89.847656 101.605469 73.152344 122.128906 73.152344 C 142.648438 73.152344 159.34375 89.847656 159.34375 110.359375 Z M 159.34375 171.957031 "/></g></svg>