<svg xmlns="http://www.w3.org/2000/svg" xmlns:xlink="http://www.w3.org/1999/xlink" width="500" zoomAndPan="magnify" viewBox="0 0 375 374.999991" height="500" preserveAspectRatio="xMidYMid meet" version="1.2"><g id="560a1e3ecb"><path style=" stroke:none;fill-rule:nonzero;fill:#000000;fill-opacity:1;" d="M 220.949219 264.535156 L 220.949219 38.042969 C 221.25 19.65625 205.234375 3.6875 186.953125 3.992188 C 168.214844 3.992188 152.953125 19.277344 152.953125 38.042969 L 152.953125 264.535156 C 106.71875 297.226562 130.367188 371.085938 186.953125 371.007812 C 243.539062 371.085938 267.183594 297.226562 220.949219 264.535156 Z M 186.953125 355.875 C 143.207031 355.875 126.964844 297.605469 164.4375 274.980469 C 166.554688 273.464844 167.914062 271.121094 168.0625 268.472656 C 168.0625 268.472656 168.0625 38.042969 168.0625 38.042969 C 168.0625 27.601562 176.527344 19.125 186.953125 19.125 C 197 18.972656 206.066406 27.828125 205.839844 38.042969 C 205.839844 38.042969 205.839844 268.472656 205.839844 268.472656 C 206.066406 271.121094 207.351562 273.464844 209.464844 274.980469 C 246.9375 297.53125 230.695312 355.875 186.953125 355.875 Z M 186.953125 355.875 "/><path style=" stroke:none;fill-rule:nonzero;fill:#000000;fill-opacity:1;" d="M 186.953125 300.707031 C 166.929688 301.085938 166.929688 330.828125 186.953125 331.203125 C 206.972656 330.828125 206.972656 301.085938 186.953125 300.707031 Z M 186.953125 300.707031 "/><path style=" stroke:none;fill-rule:nonzero;fill:#000000;fill-opacity:1;" d="M 253.058594 66.421875 L 280.105469 66.421875 C 290 66.347656 290 51.363281 280.105469 51.285156 C 280.105469 51.285156 253.058594 51.285156 253.058594 51.285156 C 243.160156 51.363281 243.160156 66.347656 253.058594 66.421875 Z M 253.058594 66.421875 "/><path style=" stroke:none;fill-rule:nonzero;fill:#000000;fill-opacity:1;" d="M 280.105469 105.242188 L 253.058594 105.242188 C 243.160156 105.316406 243.160156 120.300781 253.058594 120.378906 C 253.058594 120.378906 280.105469 120.378906 280.105469 120.378906 C 290 120.300781 290 105.242188 280.105469 105.242188 Z M 280.105469 105.242188 "/><path style=" stroke:none;fill-rule:nonzero;fill:#000000;fill-opacity:1;" d="M 280.105469 159.121094 L 253.058594 159.121094 C 243.160156 159.199219 243.160156 174.179688 253.058594 174.257812 C 253.058594 174.257812 280.105469 174.257812 280.105469 174.257812 C 290 174.179688 290 159.199219 280.105469 159.121094 Z M 280.105469 159.121094 "/><path style=" stroke:none;fill-rule:nonzero;fill:#000000;fill-opacity:1;" d="M 280.105469 213.078125 L 253.058594 213.078125 C 243.160156 213.152344 243.160156 228.136719 253.058594 228.210938 C 253.058594 228.210938 280.105469 228.210938 280.105469 228.210938 C 290 228.136719 290 213.078125 280.105469 213.078125 Z M 280.105469 213.078125 "/><path style=" stroke:none;fill-rule:nonzero;fill:#000000;fill-opacity:1;" d="M 93.800781 66.421875 L 120.847656 66.421875 C 130.742188 66.347656 130.742188 51.363281 120.847656 51.285156 C 120.847656 51.285156 93.800781 51.285156 93.800781 51.285156 C 83.902344 51.363281 83.902344 66.347656 93.800781 66.421875 Z M 93.800781 66.421875 "/><path style=" stroke:none;fill-rule:nonzero;fill:#000000;fill-opacity:1;" d="M 93.800781 120.378906 L 120.847656 120.378906 C 130.742188 120.300781 130.742188 105.316406 120.847656 105.242188 C 120.847656 105.242188 93.800781 105.242188 93.800781 105.242188 C 83.902344 105.242188 83.902344 120.300781 93.800781 120.378906 Z M 93.800781 120.378906 "/><path style=" stroke:none;fill-rule:nonzero;fill:#000000;fill-opacity:1;" d="M 93.800781 174.257812 L 120.847656 174.257812 C 130.742188 174.179688 130.742188 159.199219 120.847656 159.121094 C 120.847656 159.121094 93.800781 159.121094 93.800781 159.121094 C 83.902344 159.199219 83.902344 174.179688 93.800781 174.257812 Z M 93.800781 174.257812 "/><path style=" stroke:none;fill-rule:nonzero;fill:#000000;fill-opacity:1;" d="M 120.847656 213.078125 L 93.800781 213.078125 C 83.902344 213.152344 83.902344 228.136719 93.800781 228.210938 C 93.800781 228.210938 120.847656 228.210938 120.847656 228.210938 C 130.742188 228.136719 130.742188 213.078125 120.847656 213.078125 Z M 120.847656 213.078125 "/></g></svg>