<svg xmlns="http://www.w3.org/2000/svg" xmlns:xlink="http://www.w3.org/1999/xlink" width="500" zoomAndPan="magnify" viewBox="0 0 375 374.999991" height="500" preserveAspectRatio="xMidYMid meet" version="1.2"><defs><clipPath id="72b55c4ecc"><path d="M 3.515625 175 L 81 175 L 81 193 L 3.515625 193 Z M 3.515625 175 "/></clipPath><clipPath id="92824027d8"><path d="M 295 175 L 371.765625 175 L 371.765625 193 L 295 193 Z M 295 175 "/></clipPath></defs><g id="03aa42f042"><path style=" stroke:none;fill-rule:nonzero;fill:#100f0d;fill-opacity:1;" d="M 187.730469 257.828125 C 147.015625 257.828125 113.898438 224.726562 113.898438 184.046875 C 113.898438 143.371094 147.015625 110.269531 187.730469 110.269531 C 228.445312 110.269531 261.5625 143.371094 261.5625 184.046875 C 261.5625 224.726562 228.445312 257.828125 187.730469 257.828125 Z M 279.433594 184.046875 C 279.433594 133.523438 238.289062 92.421875 187.730469 92.421875 C 137.167969 92.421875 96.027344 133.523438 96.027344 184.046875 C 96.027344 234.574219 137.167969 275.675781 187.730469 275.675781 C 238.289062 275.675781 279.433594 234.574219 279.433594 184.046875 "/><g clip-rule="nonzero" clip-path="url(#72b55c4ecc)"><path style=" stroke:none;fill-rule:nonzero;fill:#100f0d;fill-opacity:1;" d="M 80.421875 184.046875 C 80.421875 179.152344 76.460938 175.1875 71.558594 175.1875 L 12.441406 175.1875 C 7.546875 175.1875 3.570312 179.152344 3.570312 184.046875 C 3.570312 188.945312 7.546875 192.910156 12.441406 192.910156 L 71.558594 192.910156 C 76.460938 192.910156 80.421875 188.945312 80.421875 184.046875 "/></g><g clip-rule="nonzero" clip-path="url(#92824027d8)"><path style=" stroke:none;fill-rule:nonzero;fill:#100f0d;fill-opacity:1;" d="M 363.019531 175.1875 L 303.902344 175.1875 C 301.453125 175.1875 299.238281 176.183594 297.632812 177.785156 C 296.027344 179.382812 295.039062 181.597656 295.039062 184.046875 C 295.039062 188.945312 299.007812 192.910156 303.902344 192.910156 L 363.027344 192.910156 C 367.921875 192.910156 371.886719 188.945312 371.886719 184.046875 C 371.890625 179.152344 367.921875 175.1875 363.019531 175.1875 "/></g><path style=" stroke:none;fill-rule:nonzero;fill:#100f0d;fill-opacity:1;" d="M 95.867188 104.789062 C 99.332031 108.25 104.949219 108.246094 108.40625 104.789062 C 111.871094 101.328125 111.871094 95.722656 108.40625 92.257812 L 66.605469 50.488281 C 63.140625 47.027344 57.53125 47.027344 54.066406 50.488281 C 50.601562 53.945312 50.601562 59.558594 54.066406 63.011719 L 95.867188 104.789062 "/><path style=" stroke:none;fill-rule:nonzero;fill:#100f0d;fill-opacity:1;" d="M 279.585938 263.308594 C 277.855469 261.578125 275.589844 260.714844 273.324219 260.714844 C 271.050781 260.714844 268.785156 261.578125 267.054688 263.308594 C 263.589844 266.769531 263.589844 272.382812 267.054688 275.839844 L 308.855469 317.605469 C 312.320312 321.070312 317.929688 321.070312 321.394531 317.605469 C 324.859375 314.152344 324.859375 308.539062 321.394531 305.078125 L 279.585938 263.308594 "/><path style=" stroke:none;fill-rule:nonzero;fill:#100f0d;fill-opacity:1;" d="M 187.730469 76.828125 C 192.625 76.828125 196.59375 72.859375 196.59375 67.960938 L 196.59375 8.890625 C 196.59375 3.996094 192.625 0.03125 187.730469 0.03125 C 182.835938 0.03125 178.867188 3.996094 178.867188 8.890625 L 178.867188 67.960938 C 178.867188 72.859375 182.835938 76.828125 187.730469 76.828125 "/><path style=" stroke:none;fill-rule:nonzero;fill:#100f0d;fill-opacity:1;" d="M 279.59375 104.789062 L 321.394531 63.011719 C 324.859375 59.558594 324.859375 53.945312 321.394531 50.484375 C 317.929688 47.027344 312.320312 47.027344 308.855469 50.484375 L 267.054688 92.257812 C 263.589844 95.722656 263.589844 101.328125 267.054688 104.789062 C 270.511719 108.246094 276.128906 108.246094 279.59375 104.789062 "/><path style=" stroke:none;fill-rule:nonzero;fill:#100f0d;fill-opacity:1;" d="M 95.867188 263.308594 L 54.066406 305.078125 C 50.609375 308.539062 50.601562 314.152344 54.066406 317.605469 C 57.53125 321.070312 63.140625 321.070312 66.605469 317.605469 L 108.414062 275.839844 C 110.140625 274.105469 111.007812 271.84375 111.007812 269.574219 C 111.007812 267.300781 110.140625 265.039062 108.40625 263.308594 C 104.949219 259.84375 99.332031 259.84375 95.867188 263.308594 "/><path style=" stroke:none;fill-rule:nonzero;fill:#100f0d;fill-opacity:1;" d="M 167.136719 301.09375 C 164.082031 301.09375 162.195312 302.488281 161.136719 303.675781 C 159.765625 305.222656 159.046875 307.226562 159.046875 309.46875 L 159.046875 345.316406 C 159.046875 347.859375 158.476562 350.074219 157.296875 352.058594 C 156.113281 354.070312 154.585938 355.578125 152.621094 356.675781 C 148.792969 358.835938 144.042969 358.960938 140.117188 356.691406 C 138.222656 355.605469 136.726562 354.097656 135.570312 352.085938 C 134.414062 350.097656 133.851562 347.882812 133.851562 345.316406 L 133.851562 309.46875 C 133.851562 307.164062 132.96875 305.097656 131.300781 303.476562 C 127.898438 300.242188 122.46875 300.492188 119.40625 303.449219 C 117.777344 305.027344 116.90625 307.109375 116.90625 309.46875 L 116.90625 345.316406 C 116.90625 350.882812 118.175781 355.976562 120.667969 360.460938 C 123.191406 364.988281 126.734375 368.589844 131.207031 371.140625 C 135.632812 373.6875 140.683594 374.96875 146.210938 374.96875 C 151.679688 374.96875 156.6875 373.679688 161.101562 371.136719 C 165.53125 368.585938 169.058594 364.988281 171.5625 360.460938 C 174.066406 355.976562 175.332031 350.882812 175.332031 345.316406 L 175.332031 309.46875 C 175.332031 307.191406 174.574219 305.160156 173.128906 303.605469 C 171.613281 301.964844 169.542969 301.09375 167.136719 301.09375 "/><path style=" stroke:none;fill-rule:nonzero;fill:#100f0d;fill-opacity:1;" d="M 245.457031 302.925781 C 244.203125 303.800781 243.199219 304.984375 242.359375 306.714844 L 226.605469 346.101562 L 209.921875 306.6875 C 208.414062 303.261719 205.683594 301.375 202.242188 301.375 C 200.179688 301.375 198.230469 302.132812 196.625 303.535156 C 194.8125 305.089844 193.867188 307.207031 193.867188 309.652344 C 193.867188 311.046875 194.125 312.289062 194.539062 313.121094 L 218.464844 369.71875 C 219.207031 371.207031 220.238281 372.402344 221.5625 373.265625 C 222.832031 374.101562 224.214844 374.570312 225.976562 374.6875 C 227.554688 374.6875 229.082031 374.246094 230.554688 373.355469 C 232 372.453125 233.121094 371.175781 233.957031 369.417969 L 257.773438 313.113281 C 258.292969 311.886719 258.546875 310.691406 258.546875 309.5625 C 258.546875 307.269531 257.640625 305.238281 255.902344 303.6875 C 253.105469 301.160156 248.679688 300.6875 245.457031 302.925781 "/></g></svg>