<svg xmlns="http://www.w3.org/2000/svg" xmlns:xlink="http://www.w3.org/1999/xlink" width="500" zoomAndPan="magnify" viewBox="0 0 375 374.999991" height="500" preserveAspectRatio="xMidYMid meet" version="1.2"><g id="eabfc2f568"><path style=" stroke:none;fill-rule:nonzero;fill:#000000;fill-opacity:1;" d="M 299.808594 112.308594 C 275.574219 112.308594 253.0625 124.042969 238.902344 143.6875 C 248.214844 154.589844 254.019531 168.429688 254.910156 183.671875 L 374.871094 183.671875 C 372.894531 144.003906 339.988281 112.308594 299.808594 112.308594 Z M 187.5 127.550781 C 154.464844 127.550781 127.550781 154.464844 127.550781 187.5 C 127.550781 220.535156 154.464844 247.449219 187.5 247.449219 C 220.535156 247.449219 247.449219 220.535156 247.449219 187.5 C 247.449219 154.464844 220.535156 127.550781 187.5 127.550781 Z M 187.5 223.214844 C 167.792969 223.214844 151.785156 207.207031 151.785156 187.5 C 151.785156 167.792969 167.792969 151.785156 187.5 151.785156 C 207.207031 151.785156 223.214844 167.792969 223.214844 187.5 C 223.214844 207.207031 207.207031 223.214844 187.5 223.214844 Z M 187.5 159.4375 C 172.003906 159.4375 159.4375 172.003906 159.4375 187.5 C 159.4375 202.996094 172.003906 215.5625 187.5 215.5625 C 202.996094 215.5625 215.5625 202.996094 215.5625 187.5 C 215.5625 172.003906 202.996094 159.4375 187.5 159.4375 Z M 231.3125 238.902344 C 220.40625 248.214844 206.570312 254.019531 191.328125 254.910156 L 191.328125 374.871094 C 230.996094 372.894531 262.691406 339.988281 262.691406 299.808594 C 262.691406 275.574219 250.957031 253.0625 231.3125 238.902344 Z M 120.089844 191.328125 L 0.128906 191.328125 C 2.105469 230.996094 35.011719 262.691406 75.191406 262.691406 C 99.425781 262.691406 121.9375 250.957031 136.097656 231.3125 C 126.785156 220.40625 120.980469 206.570312 120.089844 191.328125 Z M 112.308594 75.191406 C 112.308594 99.425781 124.042969 121.9375 143.6875 136.097656 C 154.59375 126.785156 168.429688 120.980469 183.671875 120.089844 L 183.671875 0.128906 C 144.003906 2.105469 112.308594 35.011719 112.308594 75.191406 Z M 112.308594 75.191406 "/><path style=" stroke:none;fill-rule:nonzero;fill:#000000;fill-opacity:1;" d="M 28.828125 172.167969 C 28.976562 172.183594 29.132812 172.191406 29.28125 172.191406 C 31.195312 172.191406 32.84375 170.765625 33.074219 168.816406 C 37.953125 127.625 59.679688 89.46875 92.695312 64.128906 C 94.371094 62.84375 94.6875 60.441406 93.398438 58.765625 C 92.117188 57.085938 89.707031 56.777344 88.039062 58.0625 C 53.398438 84.644531 30.589844 124.691406 25.476562 167.917969 C 25.226562 170.019531 26.726562 171.917969 28.828125 172.167969 Z M 28.828125 172.167969 "/><path style=" stroke:none;fill-rule:nonzero;fill:#000000;fill-opacity:1;" d="M 346.171875 202.832031 C 344.136719 202.601562 342.175781 204.085938 341.925781 206.183594 C 337.046875 247.375 315.320312 285.53125 282.304688 310.871094 C 280.628906 312.15625 280.3125 314.558594 281.601562 316.234375 C 282.355469 317.21875 283.488281 317.730469 284.632812 317.730469 C 285.449219 317.730469 286.269531 317.472656 286.960938 316.9375 C 321.601562 290.355469 344.410156 250.308594 349.523438 207.082031 C 349.773438 204.980469 348.273438 203.082031 346.171875 202.832031 Z M 346.171875 202.832031 "/><path style=" stroke:none;fill-rule:nonzero;fill:#000000;fill-opacity:1;" d="M 206.183594 33.074219 C 247.375 37.953125 285.53125 59.679688 310.871094 92.695312 C 311.625 93.679688 312.757812 94.191406 313.90625 94.191406 C 314.722656 94.191406 315.542969 93.9375 316.234375 93.398438 C 317.910156 92.117188 318.226562 89.714844 316.9375 88.039062 C 290.355469 53.398438 250.308594 30.589844 207.082031 25.476562 C 205.027344 25.226562 203.082031 26.726562 202.832031 28.828125 C 202.585938 30.925781 204.085938 32.824219 206.183594 33.074219 Z M 206.183594 33.074219 "/><path style=" stroke:none;fill-rule:nonzero;fill:#000000;fill-opacity:1;" d="M 168.816406 341.925781 C 127.625 337.046875 89.46875 315.320312 64.128906 282.304688 C 62.839844 280.617188 60.433594 280.316406 58.765625 281.601562 C 57.089844 282.882812 56.773438 285.285156 58.0625 286.960938 C 84.644531 321.601562 124.691406 344.410156 167.917969 349.523438 C 168.070312 349.542969 168.222656 349.546875 168.375 349.546875 C 170.285156 349.546875 171.9375 348.121094 172.167969 346.171875 C 172.414062 344.074219 170.914062 342.175781 168.816406 341.925781 Z M 168.816406 341.925781 "/><path style=" stroke:none;fill-rule:nonzero;fill:#000000;fill-opacity:1;" d="M 90.21875 99.210938 C 72.785156 118.386719 61.492188 142.105469 57.570312 167.789062 C 57.246094 169.878906 58.683594 171.832031 60.769531 172.148438 C 60.96875 172.179688 61.164062 172.191406 61.355469 172.191406 C 63.210938 172.191406 64.84375 170.839844 65.128906 168.945312 C 68.835938 144.757812 79.46875 122.417969 95.886719 104.355469 C 97.304688 102.792969 97.1875 100.375 95.625 98.949219 C 94.074219 97.535156 91.65625 97.640625 90.21875 99.210938 Z M 90.21875 99.210938 "/><path style=" stroke:none;fill-rule:nonzero;fill:#000000;fill-opacity:1;" d="M 284.78125 275.789062 C 302.214844 256.613281 313.507812 232.894531 317.429688 207.210938 C 317.753906 205.121094 316.316406 203.167969 314.230469 202.851562 C 312.105469 202.535156 310.1875 203.96875 309.871094 206.054688 C 306.164062 230.242188 295.53125 252.582031 279.113281 270.644531 C 277.695312 272.207031 277.8125 274.625 279.375 276.050781 C 280.105469 276.71875 281.027344 277.042969 281.949219 277.042969 C 282.988281 277.042969 284.023438 276.625 284.78125 275.789062 Z M 284.78125 275.789062 "/><path style=" stroke:none;fill-rule:nonzero;fill:#000000;fill-opacity:1;" d="M 273.21875 96.875 C 274.257812 96.875 275.289062 96.457031 276.050781 95.625 C 277.472656 94.058594 277.351562 91.644531 275.789062 90.21875 C 256.613281 72.785156 232.894531 61.492188 207.210938 57.570312 C 205.09375 57.246094 203.167969 58.679688 202.851562 60.769531 C 202.527344 62.863281 203.96875 64.8125 206.054688 65.128906 C 230.242188 68.835938 252.582031 79.46875 270.644531 95.886719 C 271.375 96.550781 272.296875 96.875 273.21875 96.875 Z M 273.21875 96.875 "/><path style=" stroke:none;fill-rule:nonzero;fill:#000000;fill-opacity:1;" d="M 98.949219 279.375 C 97.527344 280.941406 97.648438 283.355469 99.210938 284.78125 C 118.386719 302.214844 142.105469 313.507812 167.789062 317.429688 C 167.988281 317.460938 168.179688 317.472656 168.375 317.472656 C 170.230469 317.472656 171.859375 316.121094 172.148438 314.230469 C 172.472656 312.136719 171.03125 310.1875 168.945312 309.871094 C 144.757812 306.164062 122.417969 295.53125 104.355469 279.113281 C 102.8125 277.703125 100.382812 277.808594 98.949219 279.375 Z M 98.949219 279.375 "/><path style=" stroke:none;fill-rule:nonzero;fill:#000000;fill-opacity:1;" d="M 168.375 285.082031 C 170.148438 285.082031 171.742188 283.828125 172.117188 282.015625 C 172.539062 279.949219 171.207031 277.925781 169.132812 277.5 C 157.050781 275.023438 145.785156 270.246094 135.644531 263.296875 C 133.902344 262.09375 131.515625 262.554688 130.328125 264.292969 C 129.128906 266.035156 129.578125 268.414062 131.324219 269.609375 C 142.304688 277.140625 154.511719 282.316406 167.601562 285 C 167.855469 285.050781 168.117188 285.082031 168.375 285.082031 Z M 168.375 285.082031 "/><path style=" stroke:none;fill-rule:nonzero;fill:#000000;fill-opacity:1;" d="M 202.882812 92.984375 C 202.460938 95.050781 203.792969 97.074219 205.867188 97.5 C 217.949219 99.976562 229.214844 104.753906 239.355469 111.703125 C 240.015625 112.160156 240.769531 112.371094 241.511719 112.371094 C 242.730469 112.371094 243.933594 111.792969 244.671875 110.707031 C 245.871094 108.964844 245.421875 106.585938 243.675781 105.390625 C 232.695312 97.859375 220.488281 92.683594 207.398438 90 C 205.363281 89.582031 203.308594 90.910156 202.882812 92.984375 Z M 202.882812 92.984375 "/><path style=" stroke:none;fill-rule:nonzero;fill:#000000;fill-opacity:1;" d="M 282.015625 202.882812 C 279.988281 202.492188 277.925781 203.792969 277.5 205.867188 C 275.023438 217.949219 270.246094 229.214844 263.296875 239.355469 C 262.101562 241.097656 262.546875 243.476562 264.292969 244.671875 C 264.953125 245.128906 265.707031 245.339844 266.445312 245.339844 C 267.667969 245.339844 268.871094 244.761719 269.609375 243.675781 C 277.140625 232.695312 282.316406 220.488281 285 207.398438 C 285.425781 205.332031 284.089844 203.308594 282.015625 202.882812 Z M 282.015625 202.882812 "/><path style=" stroke:none;fill-rule:nonzero;fill:#000000;fill-opacity:1;" d="M 92.984375 172.117188 C 93.238281 172.167969 93.5 172.199219 93.753906 172.199219 C 95.53125 172.199219 97.125 170.945312 97.5 169.132812 C 99.976562 157.050781 104.753906 145.785156 111.703125 135.644531 C 112.898438 133.902344 112.453125 131.523438 110.707031 130.328125 C 108.964844 129.125 106.585938 129.578125 105.390625 131.324219 C 97.859375 142.304688 92.683594 154.511719 90 167.601562 C 89.574219 169.667969 90.910156 171.691406 92.984375 172.117188 Z M 92.984375 172.117188 "/></g></svg>