<svg xmlns="http://www.w3.org/2000/svg" xmlns:xlink="http://www.w3.org/1999/xlink" width="500" zoomAndPan="magnify" viewBox="0 0 375 374.999991" height="500" preserveAspectRatio="xMidYMid meet" version="1.2"><defs><clipPath id="12eb2e6ae6"><path d="M 282.5625 37.5 L 374.808594 37.5 L 374.808594 325.3125 L 282.5625 325.3125 Z M 282.5625 37.5 "/></clipPath><clipPath id="0ca3379de1"><path d="M 2 37.5 L 95 37.5 L 95 325.5 L 2 325.5 Z M 2 37.5 "/></clipPath></defs><g id="2657262da7"><path style=" stroke:none;fill-rule:nonzero;fill:#000000;fill-opacity:1;" d="M 230.71875 191.375 C 230.71875 214.679688 211.824219 233.574219 188.519531 233.574219 C 165.214844 233.574219 146.324219 214.679688 146.324219 191.375 C 146.324219 168.074219 165.214844 149.179688 188.519531 149.179688 C 211.824219 149.179688 230.71875 168.074219 230.71875 191.375 "/><path style=" stroke:none;fill-rule:nonzero;fill:#000000;fill-opacity:1;" d="M 238.496094 133.058594 C 248.375 137.238281 256.992188 144.707031 263.207031 153.890625 C 269.515625 163.050781 273.300781 174.035156 274.230469 185.238281 C 275.0625 196.429688 273.230469 207.875 268.5 217.964844 C 263.847656 228.042969 256.527344 236.800781 247.457031 242.515625 C 253.625 233.777344 258.308594 224.691406 261.210938 215.167969 C 264.011719 205.644531 265.136719 195.777344 264.265625 186.042969 C 262.839844 166.457031 253.550781 148.09375 238.496094 133.058594 "/><path style=" stroke:none;fill-rule:nonzero;fill:#000000;fill-opacity:1;" d="M 248.71875 108.550781 C 262.25 114.917969 274.277344 125.074219 283 137.710938 C 291.898438 150.253906 297.300781 165.273438 298.988281 180.640625 C 300.648438 196.015625 298.445312 211.800781 292.542969 225.992188 C 286.769531 240.238281 277.050781 252.660156 265.203125 261.75 C 284.761719 239.175781 294.441406 209.96875 291.160156 181.472656 C 288.394531 152.933594 272.535156 126.503906 248.71875 108.550781 "/><path style=" stroke:none;fill-rule:nonzero;fill:#000000;fill-opacity:1;" d="M 260.527344 85.132812 C 277.886719 93.851562 292.933594 107.347656 304.015625 123.632812 C 315.210938 139.890625 321.921875 159.152344 324.019531 178.820312 C 325.832031 198.511719 323.066406 218.695312 315.472656 236.910156 C 307.871094 255.101562 295.714844 271.261719 280.449219 283.253906 C 294.082031 269.5 304.851562 253.171875 311.355469 235.292969 C 317.820312 217.441406 320.46875 198.203125 318.308594 179.390625 C 316.75 160.515625 310.316406 142.179688 300.320312 126.023438 C 290.363281 109.820312 276.644531 95.886719 260.527344 85.132812 "/><path style=" stroke:none;fill-rule:nonzero;fill:#000000;fill-opacity:1;" d="M 273.605469 62.464844 C 294.460938 73.8125 312.558594 90.425781 325.675781 110.464844 C 338.875 130.4375 346.980469 153.800781 349.128906 177.699219 C 351.1875 201.589844 347.617188 226.015625 338.320312 248.105469 C 328.996094 270.183594 314.148438 289.75 295.691406 304.675781 C 313.261719 288.734375 327.042969 268.871094 335.734375 247.050781 C 344.316406 225.183594 347.804688 201.363281 345.523438 178.027344 C 343.714844 154.632812 335.777344 131.863281 323.335938 111.960938 C 310.878906 92.0625 293.78125 74.960938 273.605469 62.464844 "/><g clip-rule="nonzero" clip-path="url(#12eb2e6ae6)"><path style=" stroke:none;fill-rule:nonzero;fill:#000000;fill-opacity:1;" d="M 282.589844 37.5 C 307.648438 50.851562 329.359375 70.46875 345.175781 94.125 C 361.144531 117.679688 371.148438 145.269531 373.933594 173.628906 C 376.800781 201.972656 372.570312 230.972656 361.839844 257.324219 C 351.109375 283.703125 333.652344 307.199219 311.8125 325.3125 C 333.261719 306.753906 350.304688 283.183594 360.917969 256.949219 C 371.429688 230.683594 375.441406 201.871094 372.441406 173.777344 C 369.851562 145.640625 360.089844 118.191406 344.351562 94.679688 C 328.675781 71.140625 307.359375 51.359375 282.589844 37.5 "/></g><path style=" stroke:none;fill-rule:nonzero;fill:#000000;fill-opacity:1;" d="M 138.542969 133.058594 C 123.492188 148.09375 114.207031 166.457031 112.773438 186.042969 C 111.90625 195.777344 113.03125 205.644531 115.832031 215.167969 C 118.734375 224.691406 123.417969 233.777344 129.585938 242.515625 C 120.511719 236.800781 113.195312 228.042969 108.542969 217.964844 C 103.808594 207.875 101.976562 196.429688 102.8125 185.238281 C 103.742188 174.035156 107.527344 163.050781 113.835938 153.890625 C 120.050781 144.707031 128.667969 137.238281 138.542969 133.058594 "/><path style=" stroke:none;fill-rule:nonzero;fill:#000000;fill-opacity:1;" d="M 128.320312 108.550781 C 104.507812 126.503906 88.644531 152.933594 85.878906 181.472656 C 82.601562 209.96875 92.28125 239.175781 111.839844 261.75 C 99.988281 252.660156 90.273438 240.238281 84.5 225.992188 C 78.59375 211.800781 76.394531 196.015625 78.054688 180.640625 C 79.742188 165.273438 85.144531 150.253906 94.039062 137.710938 C 102.765625 125.074219 114.792969 114.917969 128.320312 108.550781 "/><path style=" stroke:none;fill-rule:nonzero;fill:#000000;fill-opacity:1;" d="M 116.515625 85.132812 C 100.398438 95.886719 86.679688 109.820312 76.722656 126.023438 C 66.726562 142.179688 60.292969 160.515625 58.734375 179.390625 C 56.574219 198.203125 59.222656 217.441406 65.6875 235.292969 C 72.191406 253.171875 82.960938 269.5 96.59375 283.253906 C 81.328125 271.261719 69.171875 255.101562 61.566406 236.910156 C 53.976562 218.695312 51.207031 198.511719 53.019531 178.820312 C 55.121094 159.152344 61.832031 139.890625 73.027344 123.632812 C 84.109375 107.347656 99.15625 93.851562 116.515625 85.132812 "/><path style=" stroke:none;fill-rule:nonzero;fill:#000000;fill-opacity:1;" d="M 103.433594 62.464844 C 83.261719 74.960938 66.164062 92.0625 53.703125 111.960938 C 41.265625 131.863281 33.328125 154.632812 31.519531 178.027344 C 29.234375 201.363281 32.726562 225.183594 41.304688 247.050781 C 50 268.871094 63.78125 288.734375 81.351562 304.675781 C 62.894531 289.75 48.042969 270.183594 38.722656 248.105469 C 29.425781 226.015625 25.855469 201.589844 27.910156 177.699219 C 30.0625 153.800781 38.167969 130.4375 51.367188 110.464844 C 64.484375 90.425781 82.578125 73.8125 103.433594 62.464844 "/><g clip-rule="nonzero" clip-path="url(#0ca3379de1)"><path style=" stroke:none;fill-rule:nonzero;fill:#000000;fill-opacity:1;" d="M 94.449219 37.5 C 69.683594 51.359375 48.367188 71.140625 32.691406 94.679688 C 16.953125 118.191406 7.191406 145.640625 4.597656 173.777344 C 1.601562 201.871094 5.609375 230.683594 16.125 256.949219 C 26.738281 283.183594 43.777344 306.753906 65.230469 325.3125 C 43.390625 307.199219 25.933594 283.703125 15.203125 257.324219 C 4.472656 230.972656 0.242188 201.972656 3.109375 173.628906 C 5.894531 145.269531 15.898438 117.679688 31.863281 94.125 C 47.683594 70.46875 69.398438 50.851562 94.449219 37.5 "/></g></g></svg>