<svg xmlns="http://www.w3.org/2000/svg" xmlns:xlink="http://www.w3.org/1999/xlink" width="500" zoomAndPan="magnify" viewBox="0 0 375 374.999991" height="500" preserveAspectRatio="xMidYMid meet" version="1.2"><defs><clipPath id="754906de79"><path d="M 21.09375 0 L 354 0 L 354 375 L 21.09375 375 Z M 21.09375 0 "/></clipPath></defs><g id="2aeeefa69b"><g clip-rule="nonzero" clip-path="url(#754906de79)"><path style=" stroke:none;fill-rule:nonzero;fill:#000000;fill-opacity:1;" d="M 352.136719 4.554688 C 350.617188 1.890625 347.792969 0.238281 344.726562 0.238281 L 285.238281 0.238281 C 282.246094 0.238281 279.472656 1.804688 277.929688 4.375 L 187.167969 155.707031 L 96.398438 4.375 C 94.863281 1.804688 92.089844 0.238281 89.097656 0.238281 L 29.609375 0.238281 C 26.542969 0.238281 23.71875 1.890625 22.199219 4.554688 C 20.683594 7.21875 20.726562 10.496094 22.3125 13.125 L 148.84375 224.238281 L 148.84375 366.25 C 148.84375 370.945312 152.660156 374.761719 157.359375 374.761719 L 216.976562 374.761719 C 221.675781 374.761719 225.492188 370.945312 225.492188 366.25 L 225.492188 224.238281 L 352.023438 13.125 C 353.609375 10.496094 353.652344 7.21875 352.136719 4.554688 Z M 352.136719 4.554688 "/></g></g></svg>