<svg xmlns="http://www.w3.org/2000/svg" xmlns:xlink="http://www.w3.org/1999/xlink" width="500" zoomAndPan="magnify" viewBox="0 0 375 374.999991" height="500" preserveAspectRatio="xMidYMid meet" version="1.2"><defs><clipPath id="dbe3633a88"><path d="M 42.65625 0 L 332.15625 0 L 332.15625 375 L 42.65625 375 Z M 42.65625 0 "/></clipPath></defs><g id="0276180663"><g clip-rule="nonzero" clip-path="url(#dbe3633a88)"><path style=" stroke:none;fill-rule:nonzero;fill:#000000;fill-opacity:1;" d="M 330.46875 59.226562 C 331.570312 57.753906 332.15625 55.972656 332.15625 54.148438 L 332.15625 8.574219 C 332.15625 3.863281 328.339844 0.0546875 323.640625 0.0546875 L 59.6875 0.0546875 C 54.984375 0.0546875 51.171875 3.863281 51.171875 8.574219 L 51.171875 59.695312 C 51.171875 64.410156 54.984375 68.21875 59.6875 68.21875 L 238.496094 68.21875 L 44.34375 315.773438 C 43.242188 317.246094 42.65625 319.027344 42.65625 320.851562 L 42.65625 366.425781 C 42.65625 371.136719 46.472656 374.945312 51.171875 374.945312 L 323.640625 374.945312 C 328.339844 374.945312 332.15625 371.136719 332.15625 366.425781 L 332.15625 315.304688 C 332.15625 310.589844 328.339844 306.78125 323.640625 306.78125 L 144.832031 306.78125 Z M 330.46875 59.226562 "/></g></g></svg>